# xmcd
#
# Track frame offsets: 
#        150
#        10816
#        23527
#        33117
#        44595
#        59568
#        73486
#        84452
#        95024
#        107425
#        116379
#        125640
#        135275
#        147623
#        157619
#        167265
#        181329
#        194223
#        201955
#        214154
#
# Disc length: 3008 seconds
#
# Revision: 4
# Processed by: cddbd v1.5.2PL0 Copyright (c) Steve Scherf et al.
# Submitted via: ExactAudioCopyFreeDBPlugin 1.0
#
DISCID=190bbe14
DTITLE=Jim Reeves - 1981 - The Very Best Of
DYEAR=1981
DGENRE=Country
TTITLE0=He'll Have To Go
TTITLE1=Distant Drums
TTITLE2=When Two Worlds Collide
TTITLE3=I Missed Me
TTITLE4=The Blizzard
TTITLE5=This Is It
TTITLE6=Moonlight and Roses (Bring Mem'ries Of You)
TTITLE7=You're The Only Good Thing (That's Happened To Me)
TTITLE8=I Love You Because
TTITLE9=I Won't Forget You
TTITLE10=There's A Heartache Following Me
TTITLE11=It Hurts So Much To See You Go
TTITLE12=Not Until The Next Time
TTITLE13=Is It Really Over?
TTITLE14=Snowflake
TTITLE15=Guilty
TTITLE16=I'd Fight The World
TTITLE17=Trying To Forget
TTITLE18=Nobody's Fool
TTITLE19=Welcome To The World
EXTD=YEAR: 1981
EXTT0=
EXTT1=
EXTT2=
EXTT3=
EXTT4=
EXTT5=
EXTT6=
EXTT7=
EXTT8=
EXTT9=
EXTT10=
EXTT11=
EXTT12=
EXTT13=
EXTT14=
EXTT15=
EXTT16=
EXTT17=
EXTT18=
EXTT19=
PLAYORDER=
